HIERARCHY
ROOT root
{
	OFFSET 0.000000 0.000000 0.000000
	CHANNELS 6 Xposition Yposition Zposition Zrotation Yrotation Xrotation
	JOINT lhip
	{
		OFFSET 0.058581 -0.082280 -0.017664
		CHANNELS 3 Zrotation Yrotation Xrotation
		JOINT lknee
		{
			OFFSET 0.043451 -0.386469 0.008037
			CHANNELS 3 Zrotation Yrotation Xrotation
			JOINT lankle
			{
				OFFSET -0.014790 -0.426874 -0.037428
				CHANNELS 3 Zrotation Yrotation Xrotation
				JOINT ltoe
				{
					OFFSET 0.041054 -0.060286 0.122042
					CHANNELS 3 Zrotation Yrotation Xrotation
					End Site
					{
						OFFSET 0.000000 0.000000 0.000000
					}
				}
			}
		}
	}
	JOINT rhip
	{
		OFFSET -0.060310 -0.090513 -0.013543
		CHANNELS 3 Zrotation Yrotation Xrotation
		JOINT rknee
		{
			OFFSET -0.043257 -0.383688 -0.004843
			CHANNELS 3 Zrotation Yrotation Xrotation
			JOINT rankle
			{
				OFFSET 0.019056 -0.420046 -0.034562
				CHANNELS 3 Zrotation Yrotation Xrotation
				JOINT rtoe
				{
					OFFSET -0.034840 -0.062106 0.130323
					CHANNELS 3 Zrotation Yrotation Xrotation
					End Site
					{
						OFFSET 0.000000 0.000000 0.000000
					}
				}
			}
		}
	}
	JOINT lowerback
	{
		OFFSET 0.004439 0.124404 -0.038385
		CHANNELS 3 Zrotation Yrotation Xrotation
		JOINT upperback
		{
			OFFSET 0.004488 0.137956 0.026820
			CHANNELS 3 Zrotation Yrotation Xrotation
			JOINT chest
			{
				OFFSET -0.002265 0.056032 0.002855
				CHANNELS 3 Zrotation Yrotation Xrotation
				JOINT lowerneck
				{
					OFFSET -0.013390 0.211636 -0.033468
					CHANNELS 3 Zrotation Yrotation Xrotation
					JOINT upperneck
					{
						OFFSET 0.010113 0.088937 0.050410
						CHANNELS 3 Zrotation Yrotation Xrotation
						End Site
						{
							OFFSET 0.000000 0.000000 0.000000
						}
					}
				}
				JOINT lclavicle
				{
					OFFSET 0.071702 0.114000 -0.018898
					CHANNELS 3 Zrotation Yrotation Xrotation
					JOINT lshoulder
					{
						OFFSET 0.122921 0.045205 -0.019046
						CHANNELS 3 Zrotation Yrotation Xrotation
						JOINT lelbow
						{
							OFFSET 0.255332 -0.015649 -0.022946
							CHANNELS 3 Zrotation Yrotation Xrotation
							JOINT lwrist
							{
								OFFSET 0.265709 0.012698 -0.007375
								CHANNELS 3 Zrotation Yrotation Xrotation
								End Site
								{
									OFFSET 0.000000 0.000000 0.000000
								}
							}
						}
					}
				}
				JOINT rclavicle
				{
					OFFSET -0.082954 0.112472 -0.023707
					CHANNELS 3 Zrotation Yrotation Xrotation
					JOINT rshoulder
					{
						OFFSET -0.113228 0.046853 -0.008472
						CHANNELS 3 Zrotation Yrotation Xrotation
						JOINT relbow
						{
							OFFSET -0.260127 -0.014369 -0.031269
							CHANNELS 3 Zrotation Yrotation Xrotation
							JOINT rwrist
							{
								OFFSET -0.269108 0.006794 -0.006027
								CHANNELS 3 Zrotation Yrotation Xrotation
								End Site
								{
									OFFSET 0.000000 0.000000 0.000000
								}
							}
						}
					}
				}
			}
		}
	}
}
MOTION
Frames: 14
Frame Time: 0.033333
0.037768 0.585095 0.926734 -7.422063 2.287679 94.630928 13.287444 7.475093 -30.558067 -4.575058 5.816664 41.186336 0.509641 5.643893 -19.736223 0.000000 -0.000000 0.000000 -15.601423 -12.023014 -29.914693 -1.330710 -8.668155 29.118735 11.291117 -3.420671 -3.687244 0.000000 -0.000000 0.000000 1.179848 2.383767 38.936579 0.810097 -1.395943 -4.632644 1.355407 -2.430961 -1.545374 -3.836535 3.260620 -19.879533 -1.059687 -4.475635 5.529610 -26.249243 -9.064074 2.486108 -40.565819 -19.277725 8.439283 43.506554 -75.203258 -24.643664 9.169538 -17.880344 -14.735416 28.236741 13.423044 2.839918 44.575102 12.218407 9.212171 -30.078966 42.949026 -37.766069 -3.335788 15.708079 -22.796147 
0.035244 0.582932 0.925485 -6.214430 2.232376 94.636661 13.504924 7.285954 -30.652063 -4.793999 5.832903 41.053677 0.583786 4.845739 -19.624733 0.000000 -0.000000 0.000000 -15.750103 -12.433883 -29.651568 -1.923494 -9.547031 30.060573 11.005322 -2.762460 -4.377137 0.000000 -0.000000 0.000000 1.675821 1.910660 38.910099 0.265625 -1.291911 -4.638963 1.230877 -2.091250 -2.228263 -3.945311 2.050827 -18.141511 -0.022407 -3.966530 5.486382 -26.837895 -10.698624 3.684927 -43.531017 -19.313468 8.600414 51.297708 -73.693311 -33.948356 11.565011 -17.500401 -15.254050 27.969044 14.470460 4.306202 44.919884 10.805849 7.855651 -30.948831 42.468396 -38.715506 -3.726726 15.034323 -22.716088 
0.033005 0.579625 0.922462 -5.156075 2.277463 95.211272 13.719105 7.262566 -31.491425 -4.939614 5.740405 41.172730 0.534632 4.268912 -19.569733 0.000000 -0.000000 0.000000 -15.511742 -12.815706 -30.607082 -2.930453 -9.910629 32.162135 11.427683 -2.150491 -5.323054 0.000000 -0.000000 0.000000 2.038531 1.174653 38.119804 -0.143535 -0.696405 -4.639073 0.868937 -1.663960 -1.258021 -4.093771 1.805503 -19.459566 0.310222 -4.419877 5.289299 -27.368001 -10.611082 3.172530 -46.416548 -20.967460 8.668135 52.741915 -73.568210 -35.721448 11.439493 -17.881484 -15.997210 27.513000 14.012378 3.954743 45.387705 10.781349 7.186632 -31.352127 42.806086 -37.587109 -2.259700 14.866347 -21.870850 
0.028273 0.576265 0.919445 -4.293740 1.842457 95.662913 12.796864 8.622736 -32.797212 -4.238878 5.024581 42.589317 -0.027432 2.456561 -20.128228 0.000000 -0.000000 0.000000 -15.274203 -13.565569 -31.576235 -3.754427 -9.099416 34.684915 10.207984 -2.040157 -7.043914 0.000000 -0.000000 0.000000 0.760986 1.124623 37.573068 -0.799156 0.220536 -5.165104 2.122560 -1.120475 -1.046500 -5.320226 -0.891864 -18.917309 1.854227 -1.975276 5.768945 -27.964470 -11.554484 3.858476 -49.662714 -20.635540 8.432978 55.145164 -74.241089 -35.745625 14.602697 -17.183830 -18.486157 26.229128 14.746128 5.053853 45.433888 10.001454 3.753002 -27.951922 43.253073 -33.786098 -4.946087 16.969010 -23.328482 
0.027231 0.575996 0.918740 -3.927435 1.773055 95.320175 12.867712 8.532064 -32.648404 -4.379134 4.948901 42.869974 0.083013 2.358469 -20.265891 0.000000 -0.000000 0.000000 -15.476210 -13.574042 -31.214724 -3.729178 -9.118207 35.190596 10.074002 -2.225044 -7.442954 0.000000 -0.000000 0.000000 0.968549 1.266905 37.289887 -0.842175 0.247972 -4.626919 2.002278 -1.063773 -0.565978 -5.467491 -1.431952 -18.728994 2.157679 -1.680214 5.366302 -28.270606 -12.344139 4.188117 -49.655773 -20.881465 8.883107 56.155688 -73.765563 -37.089486 15.166962 -16.905582 -18.566648 26.290665 15.398371 5.141043 44.941293 9.878154 3.402328 -28.318087 42.864836 -34.623782 -4.537571 16.905992 -22.901886 
0.025359 0.575131 0.916977 -3.292014 1.701455 95.683226 13.001896 8.431768 -33.434980 -4.575585 5.086334 43.432571 0.155405 2.180333 -20.409497 0.000000 -0.000000 0.000000 -15.695200 -13.550808 -31.687792 -3.672425 -9.332668 36.272765 9.916956 -2.670061 -8.152326 0.000000 -0.000000 0.000000 1.087467 1.461696 37.163404 -0.837463 0.505806 -4.762521 1.881819 -1.070257 -0.746644 -5.189179 -1.341410 -18.949808 2.023289 -1.904301 5.570559 -28.577246 -12.039295 4.090398 -50.384173 -20.745807 9.808848 53.341893 -74.442765 -34.067903 15.452636 -16.823377 -18.707378 26.468332 15.060486 5.010357 44.428311 9.825608 3.435905 -28.425008 42.775689 -35.013368 -4.866674 17.066908 -22.857134 
0.023582 0.572939 0.915477 -2.778045 1.599320 95.412966 12.978815 8.681543 -33.371808 -4.729161 4.922093 43.900696 0.151258 1.756700 -20.749853 0.000000 -0.000000 0.000000 -15.807736 -14.008729 -31.517492 -3.732474 -9.179278 37.225274 9.913843 -2.562422 -8.940913 0.000000 -0.000000 0.000000 1.163963 1.759401 37.135777 -0.729031 0.571736 -4.410820 1.783537 -0.999801 -0.836238 -4.990881 -1.377608 -19.033611 1.934148 -2.561278 5.480317 -28.704800 -12.118869 4.095817 -50.392254 -20.374313 10.319566 47.852667 -74.981256 -28.313501 15.358606 -17.064638 -18.753333 26.684987 15.177694 4.843436 43.941944 9.680254 3.256686 -28.783142 42.628569 -35.543578 -5.255587 16.869820 -23.052634 
0.022310 0.571784 0.914270 -1.962053 1.517843 95.324068 12.955888 8.554662 -33.568876 -5.159868 4.573868 44.139063 0.297188 1.928706 -20.856877 0.000000 -0.000000 0.000000 -16.123738 -14.179876 -31.255334 -3.504173 -9.263399 37.836345 9.668182 -3.154287 -9.559058 0.000000 -0.000000 0.000000 1.197526 1.741599 37.059789 -0.444299 0.421767 -4.436043 1.791648 -0.966328 -0.682822 -4.688049 -2.002293 -19.149079 1.851567 -3.406043 5.451294 -28.609852 -12.225674 4.285129 -49.864642 -19.760059 10.761473 39.334511 -75.497425 -19.992941 15.951018 -16.850995 -19.144998 26.730899 15.433444 4.810751 43.380578 9.808091 3.189088 -28.705206 42.684610 -35.748149 -6.363621 16.808713 -23.379218 
0.022217 0.570639 0.913263 -1.156321 1.775139 95.642461 13.175388 8.307866 -34.327659 -5.521089 4.217380 44.600596 0.536163 2.303829 -20.764854 0.000000 -0.000000 0.000000 -15.995568 -14.524972 -31.347441 -2.971165 -9.152861 38.116429 9.413879 -4.076077 -9.847919 0.000000 -0.000000 0.000000 1.933312 1.347247 36.666341 -0.182361 0.139367 -4.745688 1.406130 -1.023016 -0.527005 -4.122943 -3.017237 -19.434391 1.817487 -4.789348 5.276080 -28.476757 -11.844672 4.252434 -49.019357 -19.012707 11.401079 26.230978 -75.335004 -7.465898 16.642569 -16.212280 -19.995290 26.595182 15.411182 4.688709 43.006521 10.485913 3.637014 -27.884187 42.517829 -35.498928 -7.897123 16.693683 -24.075460 
0.020243 0.569537 0.916135 -1.189492 0.849990 94.656090 12.166808 8.414216 -32.845515 -6.432024 2.985216 43.824985 0.164418 3.352953 -20.413017 0.000000 -0.000000 0.000000 -16.730376 -14.552760 -30.286232 -3.038606 -8.348063 37.994407 9.526504 -4.449015 -9.770091 0.000000 -0.000000 0.000000 0.594137 2.183092 37.978535 0.094721 -0.103033 -5.866781 1.899926 -1.133807 0.924824 -3.265889 -4.092682 -21.351746 2.000545 -8.703361 5.867062 -27.645226 -12.812617 4.056337 -47.544453 -18.706663 11.183085 10.184153 -72.630206 8.227638 18.053962 -16.789075 -22.380575 26.714275 16.324722 3.588953 42.539322 10.754797 3.327706 -26.403423 42.298994 -33.196847 -9.852219 16.663300 -25.954815 
0.020232 0.566301 0.915685 -1.371736 1.990992 95.362607 13.577518 8.707632 -33.303927 -6.326911 3.625284 43.946049 0.406109 3.009010 -20.689963 0.000000 -0.000000 0.000000 -15.430990 -14.031178 -30.674181 -2.696483 -8.283095 37.573440 9.065696 -5.235503 -10.080823 0.000000 -0.000000 0.000000 1.894263 1.602528 36.347542 0.335912 -0.147832 -5.208249 1.345766 -1.335434 0.051459 -2.331650 -6.591633 -20.219516 2.407635 -11.705089 4.505116 -27.473446 -12.853650 4.419263 -46.323594 -17.074601 11.552255 0.435456 -68.938163 17.288478 17.069064 -16.443558 -21.338180 26.582952 17.223457 4.253814 42.156544 11.080297 3.868701 -23.531036 41.805966 -31.426609 -12.132991 16.153152 -27.634232 
0.018564 0.563166 0.918492 -2.397788 2.256894 94.873390 14.005582 9.713326 -31.823116 -6.775923 3.272143 43.188152 0.269035 3.474560 -20.762627 0.000000 -0.000000 0.000000 -14.663227 -13.360600 -30.038106 -2.916456 -7.657460 36.818245 8.670082 -5.212797 -9.929551 0.000000 -0.000000 0.000000 1.391906 1.836921 36.915984 0.401015 -0.057195 -5.866205 1.811427 -1.708672 -0.427313 -1.142739 -9.384603 -19.861162 3.037185 -15.406850 3.680528 -26.901630 -13.551021 4.988009 -45.332128 -15.070328 10.360692 -7.337226 -64.581496 27.810234 13.606416 -16.703791 -19.479988 25.901481 18.729122 4.589719 42.691801 11.211322 2.968009 -19.611471 41.107729 -25.941337 -13.051611 15.210912 -30.207945 
0.018415 0.560294 0.921173 -2.929298 2.541507 94.929539 14.076073 10.145049 -31.349402 -6.612501 2.895685 42.798898 0.205194 3.741163 -20.525845 0.000000 -0.000000 0.000000 -14.196504 -13.121085 -29.469695 -2.820466 -7.600580 35.631291 8.593117 -5.133553 -9.694656 0.000000 -0.000000 0.000000 1.577817 1.622125 35.992057 0.739754 -0.579121 -5.505818 1.667735 -1.955147 -0.658278 0.139060 -11.739602 -19.543840 3.514481 -18.936832 2.476537 -26.551032 -14.004295 5.410972 -44.343771 -13.767153 11.321227 -10.651571 -60.200310 33.663130 9.097944 -16.267992 -16.248278 25.192059 19.697496 4.450814 43.253900 11.861648 3.955736 -16.469134 39.865464 -22.274301 -13.567853 14.693657 -31.558679 
0.017585 0.556754 0.925041 -3.848601 2.952453 95.078004 14.365208 10.813269 -30.490288 -6.422696 2.665699 41.872978 -0.225495 3.894640 -20.393972 0.000000 -0.000000 0.000000 -13.463463 -12.671868 -28.996038 -2.795535 -7.560627 34.169962 8.573074 -4.799023 -9.135623 0.000000 -0.000000 0.000000 1.581906 1.295526 35.955544 0.866575 -0.897356 -6.224924 1.728267 -1.987395 -1.383751 1.236587 -13.463618 -19.361805 3.979962 -21.578443 2.055917 -25.911826 -14.179337 5.629983 -44.096858 -11.650374 11.442346 -15.291354 -56.664541 41.719937 2.737650 -16.879587 -12.128154 24.465552 20.287012 4.344744 44.556630 11.656156 3.789697 -13.477845 39.531880 -17.511463 -11.491264 14.797449 -31.311081 
